# Blender v2.79 (sub 0) OBJ File: ''
# www.blender.org
mtllib hat.mtl
o Circle
v 0.000000 0.000000 -1.000000
v -0.195090 0.000000 -0.980785
v -0.382683 0.000000 -0.923880
v -0.555570 0.000000 -0.831470
v -0.707107 0.000000 -0.707107
v -0.831470 0.000000 -0.555570
v -0.923880 0.000000 -0.382683
v -0.980785 0.000000 -0.195090
v -1.000000 0.000000 -0.000000
v -0.980785 0.000000 0.195090
v -0.923880 0.000000 0.382683
v -0.831470 0.000000 0.555570
v -0.707107 0.000000 0.707107
v -0.555570 0.000000 0.831470
v -0.382683 0.000000 0.923880
v -0.195090 0.000000 0.980785
v 0.000000 0.000000 1.000000
v 0.195091 0.000000 0.980785
v 0.382684 0.000000 0.923879
v 0.555571 0.000000 0.831469
v 0.707107 0.000000 0.707106
v 0.831470 0.000000 0.555570
v 0.923880 0.000000 0.382683
v 0.980785 0.000000 0.195089
v 1.000000 0.000000 -0.000001
v 0.980785 0.000000 -0.195091
v 0.923879 0.000000 -0.382684
v 0.831469 0.000000 -0.555571
v 0.707106 0.000000 -0.707108
v 0.555569 0.000000 -0.831470
v 0.382682 0.000000 -0.923880
v 0.195089 0.000000 -0.980786
v -0.000000 0.000000 -0.642173
v -0.125282 0.000000 -0.629834
v -0.245749 0.000000 -0.593291
v -0.356772 0.000000 -0.533948
v -0.454085 0.000000 -0.454085
v -0.533948 0.000000 -0.356772
v -0.593291 0.000000 -0.245749
v -0.629834 0.000000 -0.125282
v -0.642173 0.000000 -0.000000
v -0.629834 0.000000 0.125282
v -0.593291 0.000000 0.245749
v -0.533948 0.000000 0.356772
v -0.454085 0.000000 0.454085
v -0.356772 0.000000 0.533948
v -0.245749 0.000000 0.593291
v -0.125282 0.000000 0.629834
v 0.000000 0.000000 0.642173
v 0.125282 0.000000 0.629834
v 0.245749 0.000000 0.593291
v 0.356773 0.000000 0.533947
v 0.454085 0.000000 0.454085
v 0.533948 0.000000 0.356772
v 0.593291 0.000000 0.245749
v 0.629834 0.000000 0.125281
v 0.642173 0.000000 -0.000001
v 0.629834 0.000000 -0.125283
v 0.593290 0.000000 -0.245750
v 0.533947 0.000000 -0.356773
v 0.454084 0.000000 -0.454086
v 0.356772 0.000000 -0.533948
v 0.245748 0.000000 -0.593291
v 0.125281 0.000000 -0.629834
v -0.000000 0.576119 -0.350152
v -0.068311 0.576119 -0.343424
v -0.133997 0.576119 -0.323498
v -0.194534 0.576119 -0.291140
v -0.247595 0.576119 -0.247595
v -0.291140 0.576119 -0.194534
v -0.323498 0.576119 -0.133997
v -0.343423 0.576119 -0.068311
v -0.350152 0.576119 -0.000000
v -0.343423 0.576119 0.068311
v -0.323498 0.576119 0.133997
v -0.291140 0.576119 0.194533
v -0.247595 0.576119 0.247594
v -0.194534 0.576119 0.291140
v -0.133997 0.576119 0.323498
v -0.068311 0.576119 0.343423
v 0.000000 0.576119 0.350151
v 0.068311 0.576119 0.343423
v 0.133997 0.576119 0.323497
v 0.194534 0.576119 0.291140
v 0.247595 0.576119 0.247594
v 0.291140 0.576119 0.194533
v 0.323498 0.576119 0.133997
v 0.343423 0.576119 0.068311
v 0.350151 0.576119 -0.000001
v 0.343423 0.576119 -0.068312
v 0.323498 0.576119 -0.133998
v 0.291140 0.576119 -0.194534
v 0.247594 0.576119 -0.247595
v 0.194533 0.576119 -0.291141
v 0.133997 0.576119 -0.323498
v 0.068311 0.576119 -0.343424
v -0.195090 0.124677 -0.980785
v 0.000000 0.124677 -1.000000
v -0.382683 0.124677 -0.923880
v -0.555570 0.124677 -0.831470
v -0.707107 0.124677 -0.707107
v -0.831470 0.124677 -0.555570
v -0.923880 0.124677 -0.382683
v -0.980785 0.124677 -0.195090
v -1.000000 0.124677 -0.000000
v -0.980785 0.124677 0.195090
v -0.923880 0.124677 0.382683
v -0.831470 0.124677 0.555570
v -0.707107 0.124677 0.707107
v -0.555570 0.124677 0.831470
v -0.382683 0.124677 0.923880
v -0.195090 0.124677 0.980785
v 0.000000 0.124677 1.000000
v 0.195091 0.124677 0.980785
v 0.382684 0.124677 0.923879
v 0.555571 0.124677 0.831469
v 0.707107 0.124677 0.707106
v 0.831470 0.124677 0.555570
v 0.923880 0.124677 0.382683
v 0.980785 0.124677 0.195089
v 1.000000 0.124677 -0.000001
v 0.980785 0.124677 -0.195091
v 0.923879 0.124677 -0.382684
v 0.831469 0.124677 -0.555571
v 0.707106 0.124677 -0.707108
v 0.555569 0.124677 -0.831470
v 0.382682 0.124677 -0.923880
v 0.195089 0.124677 -0.980786
v -0.125282 0.124677 -0.629834
v -0.000000 0.124677 -0.642173
v -0.245749 0.124677 -0.593291
v -0.356772 0.124677 -0.533948
v -0.454085 0.124677 -0.454085
v -0.533948 0.124677 -0.356772
v -0.593291 0.124677 -0.245749
v -0.629834 0.124677 -0.125282
v -0.642173 0.124677 -0.000000
v -0.629834 0.124677 0.125282
v -0.593291 0.124677 0.245749
v -0.533948 0.124677 0.356772
v -0.454085 0.124677 0.454085
v -0.356772 0.124677 0.533948
v -0.245749 0.124677 0.593291
v -0.125282 0.124677 0.629834
v 0.000000 0.124677 0.642173
v 0.125282 0.124677 0.629834
v 0.245749 0.124677 0.593291
v 0.356773 0.124677 0.533947
v 0.454085 0.124677 0.454085
v 0.533948 0.124677 0.356772
v 0.593291 0.124677 0.245749
v 0.629834 0.124677 0.125281
v 0.642173 0.124677 -0.000001
v 0.629834 0.124677 -0.125283
v 0.593290 0.124677 -0.245750
v 0.533947 0.124677 -0.356773
v 0.454084 0.124677 -0.454086
v 0.356772 0.124677 -0.533948
v 0.245748 0.124677 -0.593291
v 0.125281 0.124677 -0.629834
v -0.068311 0.700796 -0.343424
v -0.000000 0.700796 -0.350152
v -0.133997 0.700796 -0.323498
v -0.194534 0.700796 -0.291140
v -0.247595 0.700796 -0.247595
v -0.291140 0.700796 -0.194534
v -0.323498 0.700796 -0.133997
v -0.343423 0.700796 -0.068311
v -0.350152 0.700796 -0.000000
v -0.343423 0.700796 0.068311
v -0.323498 0.700796 0.133997
v -0.291140 0.700796 0.194533
v -0.247595 0.700796 0.247594
v -0.194534 0.700796 0.291140
v -0.133997 0.700796 0.323498
v -0.068311 0.700796 0.343423
v 0.000000 0.700796 0.350151
v 0.068311 0.700796 0.343423
v 0.133997 0.700796 0.323497
v 0.194534 0.700796 0.291140
v 0.247595 0.700796 0.247594
v 0.291140 0.700796 0.194533
v 0.323498 0.700796 0.133997
v 0.343423 0.700796 0.068311
v 0.350151 0.700796 -0.000001
v 0.343423 0.700796 -0.068312
v 0.323498 0.700796 -0.133998
v 0.291140 0.700796 -0.194534
v 0.247594 0.700796 -0.247595
v 0.194533 0.700796 -0.291141
v 0.133997 0.700796 -0.323498
v 0.068311 0.700796 -0.343424
vn 0.0000 -1.0000 0.0000
vn 0.7874 -0.4504 0.4209
vn -0.5664 -0.4504 -0.6902
vn 0.8544 -0.4504 0.2592
vn -0.6902 -0.4504 -0.5664
vn 0.8885 -0.4504 0.0875
vn -0.7874 -0.4504 -0.4209
vn 0.8885 -0.4504 -0.0875
vn -0.8544 -0.4504 -0.2592
vn 0.8544 -0.4504 -0.2592
vn -0.8885 -0.4504 -0.0875
vn 0.7874 -0.4504 -0.4209
vn -0.8885 -0.4504 0.0875
vn 0.6902 -0.4504 -0.5664
vn -0.8544 -0.4504 0.2592
vn 0.5664 -0.4504 -0.6902
vn -0.7874 -0.4504 0.4209
vn 0.4209 -0.4504 -0.7874
vn 0.0875 -0.4504 0.8885
vn -0.6902 -0.4504 0.5664
vn 0.2592 -0.4504 -0.8544
vn 0.2592 -0.4504 0.8544
vn -0.5664 -0.4504 0.6902
vn 0.0875 -0.4504 -0.8885
vn 0.4209 -0.4504 0.7874
vn -0.4209 -0.4504 0.7874
vn -0.0875 -0.4504 -0.8885
vn 0.5664 -0.4504 0.6902
vn -0.2592 -0.4504 0.8544
vn -0.2592 -0.4504 -0.8544
vn 0.6902 -0.4504 0.5664
vn -0.0875 -0.4504 0.8885
vn -0.4209 -0.4504 -0.7874
vn 0.0000 1.0000 0.0000
vn -0.7874 0.4504 -0.4209
vn 0.5664 0.4504 0.6902
vn -0.8544 0.4504 -0.2592
vn 0.6902 0.4504 0.5664
vn -0.8885 0.4504 -0.0875
vn 0.7874 0.4504 0.4209
vn -0.8885 0.4504 0.0875
vn 0.8544 0.4504 0.2592
vn -0.8544 0.4504 0.2592
vn 0.8885 0.4504 0.0875
vn -0.7874 0.4504 0.4209
vn 0.8885 0.4504 -0.0875
vn -0.6902 0.4504 0.5664
vn 0.8544 0.4504 -0.2592
vn -0.5664 0.4504 0.6902
vn 0.7874 0.4504 -0.4209
vn -0.4209 0.4504 0.7874
vn -0.0875 0.4504 -0.8885
vn 0.6902 0.4504 -0.5664
vn -0.2592 0.4504 0.8544
vn -0.2592 0.4504 -0.8544
vn 0.5664 0.4504 -0.6902
vn -0.0875 0.4504 0.8885
vn -0.4209 0.4504 -0.7874
vn 0.4209 0.4504 -0.7874
vn 0.0875 0.4504 0.8885
vn -0.5664 0.4504 -0.6902
vn 0.2592 0.4504 -0.8544
vn 0.2592 0.4504 0.8544
vn -0.6902 0.4504 -0.5664
vn 0.0875 0.4504 -0.8885
vn 0.4209 0.4504 0.7874
vn -0.8819 0.0000 -0.4714
vn 0.6344 0.0000 0.7730
vn -0.9569 0.0000 -0.2903
vn 0.7730 0.0000 0.6344
vn -0.9952 0.0000 -0.0980
vn 0.8819 0.0000 0.4714
vn -0.9952 0.0000 0.0980
vn 0.9569 0.0000 0.2903
vn -0.9569 0.0000 0.2903
vn 0.9952 0.0000 0.0980
vn -0.8819 0.0000 0.4714
vn 0.9952 0.0000 -0.0980
vn -0.7730 0.0000 0.6344
vn 0.9569 0.0000 -0.2903
vn -0.6344 0.0000 0.7730
vn 0.8819 0.0000 -0.4714
vn -0.4714 0.0000 0.8819
vn -0.0980 0.0000 -0.9952
vn 0.7730 0.0000 -0.6344
vn -0.2903 0.0000 0.9569
vn -0.2903 0.0000 -0.9569
vn 0.6344 0.0000 -0.7730
vn -0.0980 0.0000 0.9952
vn -0.4714 0.0000 -0.8819
vn 0.4714 0.0000 -0.8819
vn 0.0980 0.0000 0.9952
vn -0.6344 0.0000 -0.7730
vn 0.2903 0.0000 -0.9569
vn 0.2903 0.0000 0.9569
vn -0.7730 0.0000 -0.6344
vn 0.0980 0.0000 -0.9952
vn 0.4714 0.0000 0.8819
usemtl None
s off
f 12//1 11//1 43//1 44//1
f 26//1 25//1 57//1 58//1
f 13//1 12//1 44//1 45//1
f 27//1 26//1 58//1 59//1
f 14//1 13//1 45//1 46//1
f 28//1 27//1 59//1 60//1
f 15//1 14//1 46//1 47//1
f 2//1 1//1 33//1 34//1
f 29//1 28//1 60//1 61//1
f 16//1 15//1 47//1 48//1
f 3//1 2//1 34//1 35//1
f 30//1 29//1 61//1 62//1
f 17//1 16//1 48//1 49//1
f 4//1 3//1 35//1 36//1
f 31//1 30//1 62//1 63//1
f 18//1 17//1 49//1 50//1
f 5//1 4//1 36//1 37//1
f 32//1 31//1 63//1 64//1
f 19//1 18//1 50//1 51//1
f 6//1 5//1 37//1 38//1
f 1//1 32//1 64//1 33//1
f 20//1 19//1 51//1 52//1
f 7//1 6//1 38//1 39//1
f 21//1 20//1 52//1 53//1
f 8//1 7//1 39//1 40//1
f 22//1 21//1 53//1 54//1
f 9//1 8//1 40//1 41//1
f 23//1 22//1 54//1 55//1
f 10//1 9//1 41//1 42//1
f 24//1 23//1 55//1 56//1
f 11//1 10//1 42//1 43//1
f 25//1 24//1 56//1 57//1
f 39//2 38//2 70//2 71//2
f 53//3 52//3 84//3 85//3
f 40//4 39//4 71//4 72//4
f 54//5 53//5 85//5 86//5
f 41//6 40//6 72//6 73//6
f 55//7 54//7 86//7 87//7
f 42//8 41//8 73//8 74//8
f 56//9 55//9 87//9 88//9
f 43//10 42//10 74//10 75//10
f 57//11 56//11 88//11 89//11
f 44//12 43//12 75//12 76//12
f 58//13 57//13 89//13 90//13
f 45//14 44//14 76//14 77//14
f 59//15 58//15 90//15 91//15
f 46//16 45//16 77//16 78//16
f 60//17 59//17 91//17 92//17
f 47//18 46//18 78//18 79//18
f 34//19 33//19 65//19 66//19
f 61//20 60//20 92//20 93//20
f 48//21 47//21 79//21 80//21
f 35//22 34//22 66//22 67//22
f 62//23 61//23 93//23 94//23
f 49//24 48//24 80//24 81//24
f 36//25 35//25 67//25 68//25
f 63//26 62//26 94//26 95//26
f 50//27 49//27 81//27 82//27
f 37//28 36//28 68//28 69//28
f 64//29 63//29 95//29 96//29
f 51//30 50//30 82//30 83//30
f 38//31 37//31 69//31 70//31
f 33//32 64//32 96//32 65//32
f 52//33 51//33 83//33 84//33
f 66//1 65//1 96//1 95//1 94//1 93//1 92//1 91//1 90//1 89//1 88//1 87//1 86//1 85//1 84//1 83//1 82//1 81//1 80//1 79//1 78//1 77//1 76//1 75//1 74//1 73//1 72//1 71//1 70//1 69//1 68//1 67//1
f 108//34 140//34 139//34 107//34
f 122//34 154//34 153//34 121//34
f 109//34 141//34 140//34 108//34
f 123//34 155//34 154//34 122//34
f 110//34 142//34 141//34 109//34
f 124//34 156//34 155//34 123//34
f 111//34 143//34 142//34 110//34
f 97//34 129//34 130//34 98//34
f 125//34 157//34 156//34 124//34
f 112//34 144//34 143//34 111//34
f 99//34 131//34 129//34 97//34
f 126//34 158//34 157//34 125//34
f 113//34 145//34 144//34 112//34
f 100//34 132//34 131//34 99//34
f 127//34 159//34 158//34 126//34
f 114//34 146//34 145//34 113//34
f 101//34 133//34 132//34 100//34
f 128//34 160//34 159//34 127//34
f 115//34 147//34 146//34 114//34
f 102//34 134//34 133//34 101//34
f 98//34 130//34 160//34 128//34
f 116//34 148//34 147//34 115//34
f 103//34 135//34 134//34 102//34
f 117//34 149//34 148//34 116//34
f 104//34 136//34 135//34 103//34
f 118//34 150//34 149//34 117//34
f 105//34 137//34 136//34 104//34
f 119//34 151//34 150//34 118//34
f 106//34 138//34 137//34 105//34
f 120//34 152//34 151//34 119//34
f 107//34 139//34 138//34 106//34
f 121//34 153//34 152//34 120//34
f 135//35 167//35 166//35 134//35
f 149//36 181//36 180//36 148//36
f 136//37 168//37 167//37 135//37
f 150//38 182//38 181//38 149//38
f 137//39 169//39 168//39 136//39
f 151//40 183//40 182//40 150//40
f 138//41 170//41 169//41 137//41
f 152//42 184//42 183//42 151//42
f 139//43 171//43 170//43 138//43
f 153//44 185//44 184//44 152//44
f 140//45 172//45 171//45 139//45
f 154//46 186//46 185//46 153//46
f 141//47 173//47 172//47 140//47
f 155//48 187//48 186//48 154//48
f 142//49 174//49 173//49 141//49
f 156//50 188//50 187//50 155//50
f 143//51 175//51 174//51 142//51
f 129//52 161//52 162//52 130//52
f 157//53 189//53 188//53 156//53
f 144//54 176//54 175//54 143//54
f 131//55 163//55 161//55 129//55
f 158//56 190//56 189//56 157//56
f 145//57 177//57 176//57 144//57
f 132//58 164//58 163//58 131//58
f 159//59 191//59 190//59 158//59
f 146//60 178//60 177//60 145//60
f 133//61 165//61 164//61 132//61
f 160//62 192//62 191//62 159//62
f 147//63 179//63 178//63 146//63
f 134//64 166//64 165//64 133//64
f 130//65 162//65 192//65 160//65
f 148//66 180//66 179//66 147//66
f 161//34 163//34 164//34 165//34 166//34 167//34 168//34 169//34 170//34 171//34 172//34 173//34 174//34 175//34 176//34 177//34 178//34 179//34 180//34 181//34 182//34 183//34 184//34 185//34 186//34 187//34 188//34 189//34 190//34 191//34 192//34 162//34
f 7//67 103//67 102//67 6//67
f 21//68 117//68 116//68 20//68
f 8//69 104//69 103//69 7//69
f 22//70 118//70 117//70 21//70
f 9//71 105//71 104//71 8//71
f 23//72 119//72 118//72 22//72
f 10//73 106//73 105//73 9//73
f 24//74 120//74 119//74 23//74
f 11//75 107//75 106//75 10//75
f 25//76 121//76 120//76 24//76
f 12//77 108//77 107//77 11//77
f 26//78 122//78 121//78 25//78
f 13//79 109//79 108//79 12//79
f 27//80 123//80 122//80 26//80
f 14//81 110//81 109//81 13//81
f 28//82 124//82 123//82 27//82
f 15//83 111//83 110//83 14//83
f 2//84 97//84 98//84 1//84
f 29//85 125//85 124//85 28//85
f 16//86 112//86 111//86 15//86
f 3//87 99//87 97//87 2//87
f 30//88 126//88 125//88 29//88
f 17//89 113//89 112//89 16//89
f 4//90 100//90 99//90 3//90
f 31//91 127//91 126//91 30//91
f 18//92 114//92 113//92 17//92
f 5//93 101//93 100//93 4//93
f 32//94 128//94 127//94 31//94
f 19//95 115//95 114//95 18//95
f 6//96 102//96 101//96 5//96
f 1//97 98//97 128//97 32//97
f 20//98 116//98 115//98 19//98
